<svg viewBox="0 0 128 128" xmlns="http://www.w3.org/2000/svg">
  <!-- Tło -->
  <rect width="128" height="128" rx="16" fill="#0052CC" />
  
  <!-- Główny dokument -->
  <rect x="44" y="24" width="40" height="50" rx="4" fill="white" />
  
  <!-- Linie "tekstu" w głównym dokumencie -->
  <rect x="50" y="34" width="28" height="4" rx="2" fill="#0052CC" />
  <rect x="50" y="42" width="28" height="3" rx="1.5" fill="#DFE1E6" />
  <rect x="50" y="48" width="20" height="3" rx="1.5" fill="#DFE1E6" />
  <rect x="50" y="54" width="24" height="3" rx="1.5" fill="#DFE1E6" />
  <rect x="50" y="60" width="18" height="3" rx="1.5" fill="#DFE1E6" />
  
  <!-- Dokumenty peryferyjne -->
  <g transform="translate(14, 74) rotate(-10)">
    <rect x="0" y="0" width="30" height="40" rx="3" fill="#DEEBFF" />
    <rect x="5" y="8" width="20" height="4" rx="2" fill="#0052CC" />
    <rect x="5" y="16" width="20" height="2" rx="1" fill="#0052CC" opacity="0.7" />
    <rect x="5" y="22" width="15" height="2" rx="1" fill="#0052CC" opacity="0.7" />
  </g>
  
  <g transform="translate(84, 74) rotate(10)">
    <rect x="0" y="0" width="30" height="40" rx="3" fill="#DEEBFF" />
    <rect x="5" y="8" width="20" height="4" rx="2" fill="#0052CC" />
    <rect x="5" y="16" width="20" height="2" rx="1" fill="#0052CC" opacity="0.7" />
    <rect x="5" y="22" width="15" height="2" rx="1" fill="#0052CC" opacity="0.7" />
  </g>
  
  <!-- Strzałki łączące -->
  <path d="M 40 90 L 60 70" stroke="white" stroke-width="3" fill="none" stroke-linecap="round" />
  <path d="M 88 90 L 68 70" stroke="white" stroke-width="3" fill="none" stroke-linecap="round" />
</svg>